HIERARCHY
ROOT hip
{
  OFFSET 0 0 0
  CHANNELS 6 Xposition Yposition Zposition Zrotation Yrotation Xrotation
  JOINT abdomen
  {
    OFFSET 0 20.6881 -0.73152
    CHANNELS 3 Zrotation Xrotation Yrotation
    JOINT chest
    {
      OFFSET 0 11.7043 -0.48768
      CHANNELS 3 Zrotation Xrotation Yrotation
      JOINT neck
      {
        OFFSET 0 22.1894 -2.19456
        CHANNELS 3 Zrotation Xrotation Yrotation
        JOINT head
        {
          OFFSET -0.24384 7.07133 1.2192
          CHANNELS 3 Zrotation Xrotation Yrotation
          JOINT leftEye
          {
            OFFSET 4.14528 8.04674 8.04672
            CHANNELS 3 Zrotation Xrotation Yrotation
            End Site
            {
              OFFSET 1 0 0
            }
          }
          JOINT rightEye
          {
            OFFSET -3.6576 8.04674 8.04672
            CHANNELS 3 Zrotation Xrotation Yrotation
            End Site
            {
              OFFSET 1 0 0
            }
          }
        }
      }
      JOINT rCollar
      {
        OFFSET -2.68224 19.2634 -4.8768
        CHANNELS 3 Zrotation Xrotation Yrotation
        JOINT rShldr
        {
          OFFSET -8.77824 -1.95073 1.46304
          CHANNELS 3 Zrotation Xrotation Yrotation
          JOINT rForeArm
          {
            OFFSET -28.1742 -1.7115 0.48768
            CHANNELS 3 Zrotation Xrotation Yrotation
            JOINT rHand
            {
              OFFSET -22.5879 0.773209 7.07136
              CHANNELS 3 Zrotation Xrotation Yrotation
              JOINT rThumb1
              {
                OFFSET -1.2192 -0.487915 3.41376
                CHANNELS 3 Zrotation Xrotation Yrotation
                JOINT rThumb2
                {
                  OFFSET -3.37035 -0.52449 3.41376
                  CHANNELS 3 Zrotation Xrotation Yrotation
                  End Site
                  {
                    OFFSET -1.78271 -1.18214 1.43049
                  }
                }
              }
              JOINT rIndex1
              {
                OFFSET -7.75947 0.938293 5.60832
                CHANNELS 3 Zrotation Xrotation Yrotation
                JOINT rIndex2
                {
                  OFFSET -2.54057 -0.884171 1.56538
                  CHANNELS 3 Zrotation Xrotation Yrotation
                  End Site
                  {
                    OFFSET -1.62519 -0.234802 1.16502
                  }
                }
              }
              JOINT rMid1
              {
                OFFSET -8.24714 1.18213 3.41376
                CHANNELS 3 Zrotation Xrotation Yrotation
                JOINT rMid2
                {
                  OFFSET -3.10165 -0.590103 1.0647
                  CHANNELS 3 Zrotation Xrotation Yrotation
                  End Site
                  {
                    OFFSET -2.48547 -0.328903 0.83742
                  }
                }
              }
              JOINT rRing1
              {
                OFFSET -8.82822 0.546677 1.51678
                CHANNELS 3 Zrotation Xrotation Yrotation
                JOINT rRing2
                {
                  OFFSET -2.60934 -0.819778 -0.0198488
                  CHANNELS 3 Zrotation Xrotation Yrotation
                  End Site
                  {
                    OFFSET -2.33842 -0.294052 0.168128
                  }
                }
              }
              JOINT rPinky1
              {
                OFFSET -8.27202 -0.0477905 -0.4584
                CHANNELS 3 Zrotation Xrotation Yrotation
                JOINT rPinky2
                {
                  OFFSET -1.82734 -0.647385 -0.700984
                  CHANNELS 3 Zrotation Xrotation Yrotation
                  End Site
                  {
                    OFFSET -1.69225 -0.51767 -0.607171
                  }
                }
              }
            }
          }
        }
      }
      JOINT lCollar
      {
        OFFSET 2.68224 19.2634 -4.8768
        CHANNELS 3 Zrotation Xrotation Yrotation
        JOINT lShldr
        {
          OFFSET 8.77824 -1.95073 1.46304
          CHANNELS 3 Zrotation Xrotation Yrotation
          JOINT lForeArm
          {
            OFFSET 28.1742 -1.7115 0.48768
            CHANNELS 3 Zrotation Xrotation Yrotation
            JOINT lHand
            {
              OFFSET 22.5879 0.773209 7.07136
              CHANNELS 3 Zrotation Xrotation Yrotation
              JOINT lThumb1
              {
                OFFSET 1.2192 -0.487915 3.41376
                CHANNELS 3 Zrotation Xrotation Yrotation
                JOINT lThumb2
                {
                  OFFSET 3.37035 -0.52449 3.41376
                  CHANNELS 3 Zrotation Xrotation Yrotation
                  End Site
                  {
                    OFFSET 1.78271 -1.18214 1.43049
                  }
                }
              }
              JOINT lIndex1
              {
                OFFSET 7.75947 0.938293 5.60832
                CHANNELS 3 Zrotation Xrotation Yrotation
                JOINT lIndex2
                {
                  OFFSET 2.54057 -0.884171 1.56538
                  CHANNELS 3 Zrotation Xrotation Yrotation
                  End Site
                  {
                    OFFSET 1.62519 -0.234802 1.16502
                  }
                }
              }
              JOINT lMid1
              {
                OFFSET 8.24714 1.18213 3.41376
                CHANNELS 3 Zrotation Xrotation Yrotation
                JOINT lMid2
                {
                  OFFSET 3.10165 -0.590103 1.0647
                  CHANNELS 3 Zrotation Xrotation Yrotation
                  End Site
                  {
                    OFFSET 2.48547 -0.328903 0.83742
                  }
                }
              }
              JOINT lRing1
              {
                OFFSET 8.82822 0.546677 1.51678
                CHANNELS 3 Zrotation Xrotation Yrotation
                JOINT lRing2
                {
                  OFFSET 2.60934 -0.819778 -0.0198488
                  CHANNELS 3 Zrotation Xrotation Yrotation
                  End Site
                  {
                    OFFSET 2.33842 -0.294052 0.168128
                  }
                }
              }
              JOINT lPinky1
              {
                OFFSET 8.27202 -0.0477905 -0.4584
                CHANNELS 3 Zrotation Xrotation Yrotation
                JOINT lPinky2
                {
                  OFFSET 1.82734 -0.647385 -0.700984
                  CHANNELS 3 Zrotation Xrotation Yrotation
                  End Site
                  {
                    OFFSET 1.69225 -0.51767 -0.607171
                  }
                }
              }
            }
          }
        }
      }
    }
  }
  JOINT rButtock
  {
    OFFSET -8.77824 4.35084 1.2192
    CHANNELS 3 Zrotation Xrotation Yrotation
    JOINT rThigh
    {
      OFFSET 0 -1.70687 -2.19456
      CHANNELS 3 Zrotation Xrotation Yrotation
      JOINT rShin
      {
        OFFSET 0 -36.8199 0.73152
        CHANNELS 3 Zrotation Xrotation Yrotation
        JOINT rFoot
        {
          OFFSET 0.73152 -45.1104 -5.12064
          CHANNELS 3 Zrotation Xrotation Yrotation
          End Site
          {
            OFFSET -1.1221 -3.69964 12.103
          }
        }
      }
    }
  }
  JOINT lButtock
  {
    OFFSET 8.77824 4.35084 1.2192
    CHANNELS 3 Zrotation Xrotation Yrotation
    JOINT lThigh
    {
      OFFSET 0 -1.70687 -2.19456
      CHANNELS 3 Zrotation Xrotation Yrotation
      JOINT lShin
      {
        OFFSET 0 -36.8199 0.73152
        CHANNELS 3 Zrotation Xrotation Yrotation
        JOINT lFoot
        {
          OFFSET -0.73152 -45.1104 -5.12064
          CHANNELS 3 Zrotation Xrotation Yrotation
          End Site
          {
            OFFSET 1.1221 -3.69964 12.103
          }
        }
      }
    }
  }
}
MOTION
Frames:	6
Frame Time:	0.03333
0.0 0.0 0.0 0.0 0.0 0.0 0.0 0.0 0.0 0.0 0.0 0.0 0.0 0.0 0.0 0.0 0.0 0.0 0.0 0.0 0.0 0.0 0.0 0.0 0.0 0.0 0.0 0.0 0.0 0.0 0.0 0.0 0.0 0.0 0.0 0.0 0.0 0.0 0.0 0.0 0.0 0.0 0.0 0.0 0.0 0.0 0.0 0.0 0.0 0.0 0.0 0.0 0.0 0.0 0.0 0.0 0.0 0.0 0.0 0.0 0.0 0.0 0.0 0.0 0.0 0.0 0.0 0.0 0.0 0.0 0.0 0.0 0.0 0.0 0.0 0.0 0.0 0.0 0.0 0.0 0.0 0.0 0.0 0.0 0.0 0.0 0.0 0.0 0.0 0.0 0.0 0.0 0.0 0.0 0.0 0.0 0.0 0.0 0.0 0.0 0.0 0.0 0.0 0.0 0.0 0.0 0.0 0.0 0.0 0.0 0.0 0.0 0.0 0.0 0.0 0.0 0.0 0.0 0.0 0.0 0.0 0.0 0.0 0.0 0.0 0.0 0.0 0.0 0.0 0.0 0.0 0.0
0.0721 51.707300000000004 -0.0826 -17.75628 31.51775 -4.866466 12.606636 8.034944 63.014298 -2.821311 -6.532036 -59.230071 3.278022 32.08024 177.520945 -6.569656 41.894662 -151.673511 -0.001194 -0.0 0.00301 -0.002109 0.0 -0.00172 4.22964 -44.313264 -8.560529 13.351902 10.677944 -57.621256 -49.776291 -9.849426 153.35278 176.678203 -66.209818 152.611856 -171.603292 -9.286206 89.950519 -48.465549 -14.386527 9.198035 -134.540634 10.541327 112.29485 -3.266361 20.690272 -3.90709 10.383337 -32.500263 -3.264586 -10.810968 32.240504 8.563244 0.004594 1.772395 0.556319 -156.502625 -46.134441 177.530116 25.928394 79.093346 10.819906 -44.481553 -50.153594 -43.843831 -3.269112 -26.755834 5.241313 112.152144 -8.297546 -167.549801 175.744863 -9.34061 149.892829 10.711185 58.038127 -8.318203 -83.253715 -50.258354 -33.616176 31.900199 5.68923 8.149014 90.224828 41.072771 -75.797147 15.290502 29.673038 -4.861873 169.088395 -33.247401 -145.376035 176.87647 -42.217833 -142.420816 145.119419 0.267822 179.212364 -11.902921 29.602603 5.639712 -5.421236 16.065166 -4.879269 129.019464 -29.158714 127.028294 0.0 0.000468 -0.000996 -10.84265 12.495088 2.160245 11.684426 34.401616 61.756709 -18.413215 31.38946 -93.548141 0.0 -0.000724 0.000369 87.968571 -53.363243 178.499939 79.244348 -17.740545 -54.279239 94.541622 -56.961284 -18.928954
0.0901 51.6902 -0.1114 -17.633722 31.537075 -4.758022 14.644565 4.505524 -180.0 -2.40845 1.991494 -176.323975 -10.066038 23.166057 -80.928593 35.662597 11.113063 101.946496 0.001585 0.0 0.004526 0.000668 -0.0 -0.000199 4.102654 -55.78917 -11.18323 -72.034079 -29.321823 -72.224649 177.627764 -0.511636 -68.438944 -13.006311 -17.535393 -5.190425 -173.976938 -11.643122 89.882005 30.469896 -66.385883 24.428948 -2.684697 4.227233 1.583522 87.174925 -60.134252 36.230349 -160.889803 -7.337434 143.34559 29.96262 -60.066918 7.103221 -145.122729 1.974864 -179.749988 -156.653026 15.301902 178.974339 -150.5796 31.035084 -146.359953 1.554309 -0.983523 -2.244864 44.915454 -86.288169 66.523279 -63.097566 30.712513 37.416161 3.824832 30.975912 -35.08227 7.723298 52.200886 -7.050806 0.442341 0.434925 -0.070078 97.459038 14.919603 -89.19796 -12.215405 -21.785092 5.118796 174.652419 -34.20087 -107.328029 0.057864 0.167787 -0.032656 17.94396 42.274134 -14.39803 0.015032 -1.32304 0.416597 -10.42149 0.239234 0.036287 23.390576 -36.349873 22.492504 19.578909 -37.752178 21.218617 -0.001003 0.000681 -0.000501 -9.767016 11.654241 -74.901295 -33.863343 5.86649 43.108762 -72.717493 -14.103155 4.069288 -179.993813 75.748961 -0.005091 -142.633755 -10.233144 99.799778 88.000414 -8.65114 136.480484 159.974309 14.65383 -137.389662
0.0868 51.658 -0.1183 -17.687017 31.648142 -4.764507 12.345728 6.363241 102.181069 -4.756991 -3.827782 -98.660446 11.052808 25.647444 117.760618 -30.885857 20.046859 -90.108754 -0.000873 0.0 -0.002164 4.3e-05 0.0 0.002559 2.530286 -18.881265 -3.793078 73.265924 26.132973 -57.860284 -0.019416 9.165731 113.477039 -10.252675 -28.569735 -7.229573 17.493092 -17.281056 -0.030042 -138.60567 -34.455827 125.165243 -33.795478 34.486553 25.493991 -1.381956 12.407156 0.923754 -125.643198 49.839128 115.272968 167.655007 -64.038276 132.624387 -0.015323 -1.32303 -0.416657 9.185711 14.190164 1.884826 -80.50434 -51.277608 -78.928974 -13.016508 -30.36179 -15.598013 0.009387 0.056136 -0.012537 -54.951369 6.253453 -33.444038 11.762442 2.31547 -29.912415 3.107999 40.18854 -6.0681 -176.505419 -20.694976 -88.628062 -5.189927 -63.42201 -3.885278 -159.639699 -69.972885 -102.395121 -16.783429 -1.40104 7.959903 151.477392 17.841999 -137.539196 155.795435 15.487979 -139.550124 0.01596 -1.323366 0.414451 -7.557728 26.548521 -4.019564 -13.631634 46.898733 -11.160268 25.193762 -41.050263 25.216871 -0.0 -0.000779 -0.000527 -11.26797 12.490666 23.186499 27.250034 30.70615 72.952886 -102.865488 -21.812097 -171.262109 0.0 0.000409 -0.001897 88.2605 -53.349034 -180.0 80.963966 -19.813603 -36.34316 -149.99389 -11.055292 54.305552
0.0761 51.6164 -0.1149 -17.869078 31.81965 -4.845922 12.440869 6.533688 97.489878 -4.601612 -4.193428 -94.1105 9.963312 17.634899 70.629554 -27.688408 -5.675882 -49.553886 -0.003675 -0.0 0.000874 0.000845 -0.0 -0.001314 -78.727886 68.389971 81.80799 41.004473 32.83128 51.04659 14.824013 -56.837937 122.443835 -12.814784 -17.82337 -5.259402 -85.830068 38.630934 47.95491 170.726213 -46.531052 74.104226 159.641817 -69.973237 102.398157 -21.953264 45.186643 15.723904 -0.057694 0.168053 0.030086 -167.315438 -17.310685 144.227057 -145.11869 0.310076 -179.225783 12.111991 44.873596 -3.839994 1.1357 3.040419 1.043543 28.254017 75.247496 6.326786 150.169204 21.535421 -155.275658 142.666204 -84.881023 104.509342 -32.0179 88.563133 94.016802 -136.267016 -50.139836 -128.282372 -88.928275 -50.830719 -37.599973 137.578951 17.968442 -100.465804 -12.217061 -21.784613 5.119303 64.233423 49.157849 -51.36804 125.643521 49.840011 -115.274419 -92.061097 -78.304526 -62.890701 -0.000134 -0.061106 0.017426 -9.581868 9.238798 -1.15764 -13.951542 48.150564 -11.343957 137.805053 -15.174976 134.508158 -179.991224 75.748764 -0.006005 96.973072 79.460306 82.698298 9.38423 32.324679 40.863138 -20.906692 -18.773466 -84.306571 0.001056 0.000878 -0.0 88.524673 -53.397201 178.999121 85.127074 -19.242598 -0.450606 -36.995924 -64.810801 -140.247359
0.0625 51.568999999999996 -0.1035 -18.069671 31.934855 -4.967062 12.836046 5.854179 114.115095 -4.903695 -2.776758 -110.835208 10.100439 27.692763 130.563558 -28.492533 26.534794 -101.641843 0.000762 -0.0 -0.000434 0.000993 -0.0 -0.003614 2.460126 -18.216348 -3.668942 -35.987435 -35.500135 -84.692126 -36.508104 -10.239474 -167.115162 -174.850505 -32.712171 149.766467 6.463159 -6.452884 -0.635158 5.400912 -10.97562 -9.156544 15.556448 -27.951165 -5.751883 0.527137 18.977855 3.532955 -161.15465 -8.160244 143.465897 4.280692 -3.13698 -0.028113 -145.121008 0.226623 -179.199558 11.194345 13.761101 -7.37602 0.098807 0.258329 0.091053 36.619336 81.002072 -0.088798 153.155858 9.523128 -158.798101 -154.121548 -28.83428 166.108852 -6.378749 -38.724059 -33.142311 12.839182 61.749651 -9.633965 3.029489 2.96446 -0.542122 -170.418523 -79.390916 -92.541562 -159.64073 -69.973169 -102.395506 102.060751 49.3553 -85.703283 161.152304 -8.160744 -143.465508 -165.273572 -65.470471 -130.80782 145.11916 0.267484 179.213005 6.954128 -61.110084 27.906731 112.783513 -40.023577 110.810095 -11.502022 24.603998 -4.373098 0.00086 -0.000362 0.00086 -9.435608 11.373798 -113.709229 -37.648561 -6.426166 -170.063046 92.314851 78.875392 174.248217 -179.996542 75.748337 -0.003568 -142.680884 -10.782323 99.072556 87.360805 -7.242368 145.188653 0.319006 14.624532 117.305257
